<?xml version="1.0" encoding="UTF-8"?>
<!DOCTYPE svg PUBLIC "-//W3C//DTD SVG 1.1//EN" "http://www.w3.org/Graphics/SVG/1.1/DTD/svg11.dtd">
<!-- Creator: CorelDRAW 2019 (64-Bit) -->
<svg xmlns="http://www.w3.org/2000/svg" xml:space="preserve" width="210mm" height="297mm" version="1.1" style="shape-rendering:geometricPrecision; text-rendering:geometricPrecision; image-rendering:optimizeQuality; fill-rule:evenodd; clip-rule:evenodd"
viewBox="0 0 21000 29700"
 xmlns:xlink="http://www.w3.org/1999/xlink">
 <defs>
  <style type="text/css">
   <![CDATA[
    .fil0 {fill:#85500A}
   ]]>
  </style>
 </defs>
 <g id="Capa_x0020_1">
  <metadata id="CorelCorpID_0Corel-Layer"/>
  <path class="fil0" d="M3609.37 4350c-545.5,0 -984.37,438.87 -984.37,984.37 0,1595.51 959.77,2436.33 1603.71,2998.24l45.12 41.02c668.55,582.42 976.17,894.14 976.17,1554.49 0,545.51 438.87,984.38 984.38,984.38 545.51,0 984.38,-438.87 984.38,-984.38 0,-1595.51 -959.77,-2436.33 -1603.71,-2998.24l-45.12 -41.02c-668.56,-582.41 -976.18,-894.13 -976.18,-1554.49 0,-545.51 -438.87,-984.38 -984.38,-984.38l0 0.01zm-2296.87 7875c-725.98,0 -1312.5,586.52 -1312.5,1312.5l0 7875c0,2173.83 1763.67,3937.5 3937.5,3937.5l7875 0c2173.83,0 3937.5,-1763.67 3937.5,-3937.5l656.25 0c2538.87,0 4593.75,-2054.88 4593.75,-4593.75 0,-2538.87 -2054.88,-4593.75 -4593.75,-4593.75l-1968.75 0 -13125 0zm14437.5 2625l656.25 0c1086.91,0 1968.75,881.84 1968.75,1968.75 0,1086.91 -881.84,1968.75 -1968.75,1968.75l-656.25 0 0 -3937.5zm-6562.5 -9515.63c0,-545.51 -438.87,-984.38 -984.38,-984.38 -545.51,0 -984.38,438.87 -984.38,984.38 0,1595.51 959.77,2436.33 1603.71,2998.24l45.12 41.02c668.56,582.42 976.18,894.14 976.18,1554.49 0,545.51 438.87,984.38 984.38,984.38 545.51,0 984.38,-438.87 984.38,-984.38 0,-1595.51 -959.77,-2436.33 -1603.71,-2998.24l-45.12 -41.02c-668.56,-582.41 -976.18,-894.13 -976.18,-1554.49z"/>
 </g>
</svg>
